<svg id="Layer_1" data-name="Layer 1" xmlns="http://www.w3.org/2000/svg" viewBox="0 0 847.12 668.68"><defs><style>.cls-1{fill:#ea1680;}.cls-2{fill:#231f20;}</style></defs><path class="cls-1" d="M698.77,546c-53.13-2.37-63.24,100.49-73.39,153.53-12.64-40.44-34.77-136.13-71.68-149.95-57.78-21.63-90.27,63.61-109,102.07-12.11-38.58-24.85-115-77.1-100.37C347.15,557,295.24,585,251.45,613.13c24.1-48.11,42-73.27,31.48-103.76C271,474.74,191.23,486.61,148.13,494c43.75-16.84,124.56-72.41,127.76-90.15,7.13-39.67-42.08-73.24-73.72-86.82,38-11.55,72.07-22.73,76.27-61,5-45-14.46-77.73-26.29-100.92,36.63,22.93,71.74,57.6,123.66,54.24,57.14-3.7,49.45-101.07,46.34-117.59C464.63,189.21,530.24,199.22,562,176.18c28.71-20.84,48.66-51.38,63.67-81.45.43,44.79,2.09,84.69,36.67,90.49,50,8.37,96.9-38.27,129.08-66-15.52,29.61-33.35,71-18.16,98.27,20.53,36.91,107.85-7.76,147.2-18.79-34.76,27.6-126.91,96.88-100.72,145.88,18.56,34.71,76.5,57,113.75,70.61-56.17,3-83.48,36.56-101.32,64.92-10.84,17.22-9.78,45,29,149.26C861.18,629.41,738.35,547.78,698.77,546Z" transform="translate(-111.51 -65.02)"/><path class="cls-2" d="M804.85,100.06,789,130.29c-8.3,15.83-33.57,64-18.22,91.62,3.17,5.7,8.68,9.12,16.87,10.46,23.29,3.82,61-10.08,91.25-21.25,11.91-4.39,23.15-8.54,32-11l31.29-8.76L916.23,212l-5.33,4.21c-34.65,27.35-115.8,91.4-93.6,132.94,18.15,33.93,80.43,56.69,110.35,67.62l31,11.32-33,1.76c-44.64,2.38-78.28,21.08-100,55.56-11.76,18.7-1.16,66.08,33.36,149.12l8.44,20.31L849.71,643c-1.13-.75-113.32-75.05-155.3-81.94h0a33.36,33.36,0,0,0-4-.44c-40.92-1.83-54.15,75.26-62.9,126.27-1.33,7.79-2.59,15.14-3.86,21.75l-4.81,25.1-7.53-24.12c-9.83-31.46-36.6-106.1-72.82-119.65a68.8,68.8,0,0,0-12.92-3.52c-42.8-7-65.57,39.87-82.19,74.11l-7.95,16.37-4.76-15.17c-1.63-5.22-3.26-11.06-5-17.24-8.91-31.88-21.12-75.55-48.56-80a36.89,36.89,0,0,0-15.93,1.21c-19.05,5.33-70.4,32.72-114.47,61.06l-19.63,12.62,10.73-21.4c3.75-7.5,7.29-14.31,10.71-20.89,17.65-34,28.3-54.5,20.4-77.42-2.88-8.34-11-13.5-24.86-15.77-17.86-2.93-41.66-.42-62.66,1.79-10.51,1.11-20.44,2.16-28.91,2.46l-41,1.46L150.33,495c77.06-28.82,108.68-70.11,111.28-84.53,6.53-36.31-42.89-67.84-69.94-79.43l-17-7.28,17.79-5.42c41-12.47,68.08-23.05,71.61-55.16,4.32-39.32-11.27-69.38-22.65-91.32-1-2-2-3.85-2.94-5.69l-11-21.55,20,12.5c7.63,4.77,15.31,10.12,22.72,15.3,22.75,15.87,46.27,32.27,74.59,36.92a100.84,100.84,0,0,0,22.72,1.1c14.1-.92,24.34-5.59,31.31-14.3,16.74-20.92,12.2-63.11,8.89-93.92l-4-37.24,16.06,33.24c23,47.5,60.72,83.08,94,88.53,13.68,2.25,26-.53,36.66-8.27,23.39-17,43.53-42.82,61.58-79l11.78-23.62L624,102.4c.44,46.2,3,79.26,31.4,84l.21,0c42.31,6.95,83.86-29.53,114.19-56.17,3.32-2.91,6.51-5.71,9.57-8.35Zm-151.38,99.7-.26,0c-33.34-5.59-39.93-38.16-41.45-72.8-16.12,27.34-34,48-54.21,62.63-13.28,9.65-29.18,13.29-46,10.54-30.91-5.07-63.77-31.29-88.41-69.25,1.58,27,0,55.64-14.62,73.9-9.27,11.58-22.88,18-40.46,19.16a112.29,112.29,0,0,1-25.47-1.23c-31-5.09-55.72-22.31-79.59-39l-1.72-1.19c10,21.35,19.2,48.27,15.49,82-4.07,37-33.86,51.46-64.61,61.64,31.38,17.11,68.83,48.55,62,86.61-3.1,17.19-28.12,50.33-82,78.25,18.53-1.82,38-3.11,54.06-.48,18.52,3,30.2,11.21,34.71,24.28,9.82,28.5-2.41,52.24-21,88.06,40.05-24.42,80.65-45.35,98.15-50.25a49,49,0,0,1,21.2-1.51c35.29,5.79,48.79,54.09,58.65,89.35l.36,1.3c17.4-34.53,43.3-76.24,89.44-68.66A81,81,0,0,1,543,577.25c33,12.37,57.68,63.57,72.51,104.3,4.64-27,10.47-59.7,20.72-85.7,13.16-33.36,31.65-49.75,55-48.7a44.71,44.71,0,0,1,5.42.59h0c34.51,5.66,108.82,51,142.72,72.58-38.47-97.27-34-126.65-24.24-142.25,19.48-30.94,47.39-50.44,83.19-58.18-40.74-16.39-77.16-36.05-92.12-64-22.8-42.64,30.3-95.29,72.41-130.42-30.83,11.34-67.84,24.38-93.09,20.23-12-2-20.64-7.62-25.75-16.8-12.22-22-5.77-50.82,4.73-76.57C733.87,178.37,695.14,206.59,653.47,199.76Z" transform="translate(-111.51 -65.02)"/></svg>