<svg xmlns="http://www.w3.org/2000/svg" viewBox="0 0 347.37 113.52"><defs><style>.cls-1{fill:#ffffff;}</style></defs><g id="Layer_2" data-name="Layer 2"><g id="Layer_1-2" data-name="Layer 1"><path class="cls-1" d="M15,72.57c10,7,20.62,10,29.39,10,10.73,0,18.39-4.59,18.39-12.25,0-17.55-57.53-4-57.53-37.75C5.29,6.69,30.36,0,54,0A152.38,152.38,0,0,1,79.67,2.37l-.84,25.49c-4.73-2.09-15.46-4.6-24.79-4.6-8.36,0-15.46,2.09-15.46,8.22,0,14.2,59.61-6,59.61,40.81,0,26.46-25.07,38.16-50.69,38.16-18.81,0-37.75-6.27-47.5-17.69Z"/><path class="cls-1" d="M170.2,111.84l-6.41-21.31-27.57,2-4.6,21-31.48-6L133.43.84l29.67,1,37.61,101.26ZM148.06,38.16,140.12,72,158,70.89Z"/><path class="cls-1" d="M206,112.26,208.23,3.62l32.45-.56-2.51,108Z"/><path class="cls-1" d="M250.71,7.38A124.52,124.52,0,0,1,274,5.15c47.5,0,73.41,22.43,73.41,53.07,0,25.91-24.93,51.67-78.84,51.67a96.94,96.94,0,0,1-12.81-.83Zm33.42,69.37c1.67.13,3.35.27,4.88.27,17.41,0,29-6.54,29-19.77,0-13-12.68-21.18-33-21.45Z"/></g></g></svg>