<svg xmlns="http://www.w3.org/2000/svg" viewBox="0 0 327.87 114.21"><defs><style>.cls-1{fill:#ffffff;}</style></defs><g id="Layer_2" data-name="Layer 2"><g id="Layer_1-2" data-name="Layer 1"><path class="cls-1" d="M68.67,108.5,61.28,62.4,46.52,108.5l-27.16,5.71L0,6.41,36.21,0l5.71,56.41,13-40,18.38-1.26,8.22,44.57L100.7,1.67l30.78,10.17L92.9,113.93Z"/><path class="cls-1" d="M183.29,108.5l2.09-40.95-20.89,4.6,1,38.44-26.33-1.11L131.62,9.61l31.2-3.9,1,39.56,22.71-.7,2.09-40.95L217.7,5.43l-2.93,104.46Z"/><path class="cls-1" d="M226.19,57.94c0-30.08,21.87-56.13,50.7-56.13,29.39,0,51,24.93,51,55.71,0,29.25-22.43,55.3-51.4,55.3C247.78,112.82,226.19,87.61,226.19,57.94Zm70.62,1.67c0-13-7.52-24-19.22-24-12.54,0-21.31,11.42-21.31,24.37,0,13.23,6.54,23.68,20.89,23.68C289.7,83.71,296.81,72.43,296.81,59.61Z"/></g></g></svg>