<svg xmlns="http://www.w3.org/2000/svg" viewBox="0 0 465.48 114.77"><defs><style>.cls-1{fill:#ffffff;}</style></defs><g id="Layer_2" data-name="Layer 2"><g id="Layer_1-2" data-name="Layer 1"><path class="cls-1" d="M68.67,108.5,61.28,62.4,46.52,108.5l-27.16,5.71L0,6.41,36.21,0l5.71,56.41,13-40,18.38-1.26,8.22,44.57L100.7,1.67l30.78,10.17L92.9,113.93Z"/><path class="cls-1" d="M183.29,108.5l2.09-40.95-20.89,4.6,1,38.44-26.33-1.11L131.62,9.61l31.2-3.9,1,39.56,22.71-.7,2.09-40.95L217.7,5.43l-2.93,104.46Z"/><path class="cls-1" d="M292.63,113.1l-6.41-21.31-27.58,1.95-4.59,21-31.48-6L255.86,2.09l29.67,1,37.6,101.26ZM270.48,39.42l-7.94,33.84,17.83-1.11Z"/><path class="cls-1" d="M334.69,110.59l.7-76.33-22.7.56L309.9,9.05l80.64-5,.14,27.86-22.14,1-4.6,80.65Z"/><path class="cls-1" d="M434.14,72a38.21,38.21,0,0,1-20.06,6c-10.58,0-18.66-5.15-18.66-12.26,0-19.5,35.38-11.42,35.38-26.46,0-6.13-6.69-11.84-19.64-11.84A55.18,55.18,0,0,0,398.48,29L397.09,2.23A108.4,108.4,0,0,1,416.45.56c26.6,0,49,9.33,49,27.57,0,25.91-39.28,23.68-39.28,33.29,0,1.26,1,1.81,2.37,1.81a6.91,6.91,0,0,0,4.6-1.95ZM398.9,98.75c0-8.22,6.55-15.6,15-15.6a15.47,15.47,0,0,1,15.19,15.46c0,7.94-6.13,15.46-15.05,15.46A15.33,15.33,0,0,1,398.9,98.75Z"/></g></g></svg>