<svg xmlns="http://www.w3.org/2000/svg" viewBox="0 0 628.06 606.72"><defs><style>.cls-1,.cls-3{fill:#fff;}.cls-1{fill-rule:evenodd;}.cls-2{fill:#20140f;}</style></defs><g id="Layer_2" data-name="Layer 2"><g id="Layer_1-2" data-name="Layer 1"><path class="cls-1" d="M621.61,264.83a61.44,61.44,0,0,0-49.79-60.31A76.83,76.83,0,0,0,506.66,87a78.22,78.22,0,0,0-8.43.47A66.65,66.65,0,0,0,414,40.55a107.45,107.45,0,0,0-163.24,9.54A44.36,44.36,0,0,0,201.55,67,73.36,73.36,0,0,0,94.11,109.5a104,104,0,0,0-8.62,203.67,66.81,66.81,0,0,0,79.75,90.64A91.36,91.36,0,0,0,312.15,464,105.59,105.59,0,0,0,495,392c0-.69,0-1.39-.05-2.08a57.25,57.25,0,0,0,84.26-66.7A61.44,61.44,0,0,0,621.61,264.83Z"/><path class="cls-2" d="M389.39,504.09a112.46,112.46,0,0,1-77.91-31.56,96.78,96.78,0,0,1-55.61,17.35A98,98,0,0,1,160,411.65a73.3,73.3,0,0,1-83-94.16A110.47,110.47,0,0,1,89.17,103.82a79.83,79.83,0,0,1,110.7-45,50.82,50.82,0,0,1,48.41-16A113.9,113.9,0,0,1,415.9,33.32a73.1,73.1,0,0,1,87,47.27c1.26-.06,2.51-.09,3.74-.09a83.29,83.29,0,0,1,74.83,119.88A67.88,67.88,0,0,1,587,327.2a63.72,63.72,0,0,1-85.83,73.05A112.21,112.21,0,0,1,389.39,504.09ZM312.83,455.3l4,4.32A99.14,99.14,0,0,0,488.55,392q0-.52,0-1l0-.9-.24-11.8,10.06,6.17a50.79,50.79,0,0,0,74.76-59.19l-2-6.15,6.15-2a55,55,0,0,0-6.6-106.24l-9.25-1.78,5-8a70.39,70.39,0,0,0-59.7-107.7,73.1,73.1,0,0,0-7.73.43l-5.55.61L492,89a60.2,60.2,0,0,0-76.08-42.32L412.1,47.9,409.34,45a101,101,0,0,0-153.45,9l-2.72,3.58-4.3-1.31a37.89,37.89,0,0,0-42,14.48l-3.42,4.85-5.12-3a66.91,66.91,0,0,0-98,38.75l-1.16,3.9-4,.64a97.55,97.55,0,0,0-8.09,191l7.39,1.82-3,7a60.36,60.36,0,0,0,72.06,81.88l7.21-2.06,1,7.44a85.09,85.09,0,0,0,84.23,74,84.13,84.13,0,0,0,52.31-18Z"/><path class="cls-1" d="M228.73,115A107.5,107.5,0,0,1,417.25,44.32"/><path class="cls-2" d="M228.73,115s-.13-1-.39-2.94a81.9,81.9,0,0,1-.63-8.41c0-1.81,0-3.84.07-6s.25-4.6.6-7.14A93.31,93.31,0,0,1,232,73.48a101.55,101.55,0,0,1,8.15-19.06,104.89,104.89,0,0,1,13.55-19,102.64,102.64,0,0,1,8.81-8.76c1.58-1.39,3.23-2.71,4.87-4.08s3.41-2.57,5.19-3.77A109.94,109.94,0,0,1,295.67,6.74,105.71,105.71,0,0,1,321,.69l3.2-.36c1.07-.08,2.14-.14,3.2-.19S329.53,0,330.59,0h6.09l.37,0L340,.22c1,.06,1.89.09,2.93.2L346,.79a104.1,104.1,0,0,1,22.8,5.42,98.64,98.64,0,0,1,32.53,19.41c1.94,1.68,3.59,3.43,5.15,5l4,4.51c2.32,2.83,4,5.13,5.06,6.75l1.64,2.46-2.32-1.84c-.76-.59-1.63-1.38-2.76-2.19s-2.4-1.77-3.79-2.84l-4.83-3.28c-1.85-1.07-3.69-2.4-5.84-3.54l-3.25-1.85L390.94,27c-1.19-.62-2.45-1.2-3.74-1.77s-2.57-1.22-3.95-1.72a108.69,108.69,0,0,0-17.88-5.7A112.49,112.49,0,0,0,345,15l-2.58-.1c-.88,0-1.91,0-2.86,0h-3.44l-.68,0-1.37.07-2.75.16c-.91.07-1.83.19-2.75.28l-2.76.28-2.75.41a104.91,104.91,0,0,0-21.73,5.67,110.14,110.14,0,0,0-20.1,10A111.27,111.27,0,0,0,264,45.33a114.88,114.88,0,0,0-23.31,31.6,111.62,111.62,0,0,0-6.24,14.87c-1.6,4.57-2.7,8.7-3.55,12.14-.37,1.72-.68,3.26-1,4.62s-.46,2.54-.64,3.48Z"/><path class="cls-1" d="M449.12,109.72a76.86,76.86,0,0,1,119.61,94.93"/><path class="cls-2" d="M449.12,109.72l1.56-2,1.9-2.4c.37-.48.77-1,1.2-1.52a20.81,20.81,0,0,1,1.55-1.6c1.11-1.12,2.39-2.35,3.8-3.7a19.94,19.94,0,0,1,2.31-1.92l2.56-2a47.31,47.31,0,0,1,6-3.92c1.09-.64,2.2-1.34,3.38-1.94L477.05,87A42.59,42.59,0,0,1,481,85.33l4.23-1.41,2.19-.71c.74-.22,1.51-.34,2.27-.52l4.69-1a41.26,41.26,0,0,1,4.9-.65c1.66-.14,3.35-.42,5.06-.44a76.16,76.16,0,0,1,10.52.33c1.77.21,3.59.28,5.39.63l5.39,1.14a44.45,44.45,0,0,1,5.39,1.5l2.68.89a20.7,20.7,0,0,1,2.66,1l5.23,2.31,1.31.59,1.25.7,2.5,1.45a84.21,84.21,0,0,1,9.58,6.47c1.55,1.15,2.89,2.55,4.34,3.82l2.13,2,.53.49.13.13.07.06.3.31.21.24.88,1c1.18,1.3,2.32,2.56,3.48,3.91,1.19,1.61,2.39,3.2,3.58,4.8l.88,1.19.75,1.21,1.47,2.41,1.43,2.41c.45.82.83,1.67,1.25,2.5.78,1.68,1.68,3.3,2.33,5l1.9,5.09a79.74,79.74,0,0,1,3.84,20.14,73.74,73.74,0,0,1-1.26,18.07,70.07,70.07,0,0,1-4.38,14.44,64.39,64.39,0,0,1-5.4,10.1,48.43,48.43,0,0,1-4.33,5.86l-1.64,2s.3-.84.84-2.42a67.15,67.15,0,0,0,2.2-6.74A87.1,87.1,0,0,0,574.16,185a83.28,83.28,0,0,0,1.07-13.62,81,81,0,0,0-1.49-15.72,84.63,84.63,0,0,0-5.16-16.48c-.65-1.34-1.32-2.68-1.94-4s-1.48-2.63-2.21-4c-.38-.65-.74-1.33-1.15-2L562,127.28l-1.29-1.91-.65-1-.69-.85-2.73-3.43-3.56-3.78-.89-1-.22-.24c-.23-.24.26.26.19.2l-.06,0-.11-.1-.44-.39-1.76-1.56c-1.19-1-2.28-2.16-3.56-3.06a68.56,68.56,0,0,0-7.7-5.33l-2-1.21-1-.61-1-.51-4.17-2.06a76.8,76.8,0,0,0-17.37-5.39c-2.9-.74-5.85-.78-8.72-1.19-1.44-.17-2.86-.08-4.28-.14l-2.12-.05a13.22,13.22,0,0,0-2.09,0L491.6,94c-.68,0-1.36,0-2,.15l-2,.3-3.86.57c-1.29.15-2.47.58-3.68.82l-3.56.83c-1.15.31-2.22.75-3.32,1.08l-3.19,1c-1.05.31-2,.83-2.93,1.2-1.87.83-3.73,1.52-5.3,2.34l-4.37,2.3a32.32,32.32,0,0,0-3.53,2.09l-2.58,1.65Z"/><path class="cls-2" d="M308.29,464.74l-2.3,2.07a57.26,57.26,0,0,1-6.85,5.47l-2.5,1.73-1.36.94-1.46.85c-2,1.13-4.2,2.4-6.62,3.58L283.37,481c-1.34.52-2.67,1.23-4.13,1.65l-4.46,1.42-2.33.73-2.43.55-5,1.08c-1.72.34-3.5.47-5.32.72a92,92,0,0,1-11.31.62c-2,0-3.93-.21-5.93-.32l-3-.22c-1-.1-2-.3-3-.45-2-.33-4.11-.62-6.17-1.06L224,484.14a25.11,25.11,0,0,1-3.1-.95l-3.07-1.11-3.1-1.15c-1-.38-2-.92-3-1.37-2-1-4.06-1.87-6.05-2.94l-5.81-3.5A27.57,27.57,0,0,1,197,471.2l-2.77-2-2.77-2.05c-.87-.74-1.72-1.53-2.57-2.3l-2.57-2.32L185,461.34l-.32-.29-.16-.14-.42-.44-.54-.59-4.3-4.72a58.51,58.51,0,0,1-4.28-5.48l-2.13-2.91-1-1.46-.88-1.5c-1.18-2-2.32-4-3.45-6a26.61,26.61,0,0,1-1.51-3.08l-1.39-3.12c-2-4.08-3.15-8.49-4.56-12.7-.51-2.16-1-4.33-1.43-6.46-.22-1.08-.46-2.14-.65-3.21s-.23-2.15-.35-3.23c-.22-2.13-.48-4.25-.65-6.35s0-4.2,0-6.26c0-1,0-2.05,0-3.06s.18-2,.27-3c.19-2,.38-4,.6-5.9s.75-3.81,1.12-5.67a41.43,41.43,0,0,1,1.3-5.41l1.62-5.12c.29-.83.49-1.68.83-2.47s.68-1.57,1-2.34a69.65,69.65,0,0,1,4.18-8.66,63.6,63.6,0,0,1,4.53-7.31c1.63-2.16,3-4.25,4.53-6l4.32-4.65c.66-.69,1.24-1.37,1.86-1.95L185,330.3c1.13-.94,2.08-1.75,2.86-2.41l2.39-1.95-1.72,2.59-2.07,3c-.4.59-.83,1.23-1.3,1.91s-.85,1.47-1.32,2.27c-.9,1.6-1.9,3.36-3,5.29s-1.92,4.16-3,6.44a67,67,0,0,0-2.85,7.45,69.62,69.62,0,0,0-2.44,8.4,83,83,0,0,0-1.78,9.26,43.63,43.63,0,0,0-.52,4.91c-.12,1.66-.25,3.35-.39,5.05,0,1.72.06,3.45.07,5.2,0,.87,0,1.75,0,2.64s.17,1.76.25,2.65c.19,1.78.37,3.57.52,5.37s.67,3.59,1,5.4c.17.9.33,1.81.5,2.72s.51,1.79.76,2.69c.5,1.79,1,3.6,1.51,5.41l2.05,5.3c.36.88.6,1.81,1,2.66l1.26,2.57,1.26,2.59a19.44,19.44,0,0,0,1.35,2.55c1,1.63,2,3.28,3,4.94l.74,1.25.84,1.1,1.65,2.22a39.18,39.18,0,0,0,3.59,4.54l4.26,4.76.53.59.06.08c.28.28-.29-.31-.21-.22l.13.12.27.24,1.07,1,2.14,2,2.13,2,2.28,1.78,2.27,1.79a21.13,21.13,0,0,0,2.32,1.69,92.93,92.93,0,0,0,19.94,10.44l5.18,1.81c1.74.49,3.49.89,5.21,1.37.87.22,1.72.49,2.59.66l2.59.45c1.72.27,3.42.66,5.12.85a93.27,93.27,0,0,0,10,.7c1.62,0,3.23.14,4.8.05l4.63-.29,2.26-.12,2.19-.31,4.25-.59c2.77-.41,5.33-1.14,7.82-1.61s4.66-1.41,6.8-2l1.56-.46,1.43-.55,2.68-1a83.06,83.06,0,0,0,7.94-3.47Z"/><path class="cls-3" d="M487.53,373.24s78,70.7,50.42,186.14c0,0-9.35-88.35-88.83-140.22"/><path class="cls-2" d="M487.53,373.24a108.32,108.32,0,0,1,9.63,8.3c3,3,6,6,8.82,9.24s5.52,6.51,8.11,9.91,5.07,6.9,7.4,10.51,4.59,7.27,6.68,11c1,1.9,2.08,3.77,3.05,5.7l2.88,5.8,2.64,5.92c.87,2,1.62,4,2.44,6s1.51,4.06,2.23,6.11,1.44,4.09,2,6.18,1.29,4.15,1.84,6.26l1.57,6.33c.54,2.11.89,4.26,1.35,6.39s.87,4.27,1.15,6.43l.93,6.48.66,6.51c.25,2.17.36,4.34.45,6.53s.24,4.36.25,6.54c0,4.36.09,8.73-.23,13.08l-.4,6.54-.7,6.5c-.39,4.35-1.21,8.63-1.89,12.93s-1.8,8.51-2.69,12.76l-9.55,45.48L530,560.22l-.3-2.28-.4-2.47-.91-5c-.66-3.33-1.39-6.68-2.25-10s-1.79-6.63-2.75-9.93-2-6.56-3.19-9.81-2.36-6.47-3.62-9.68l-2-4.78-2.1-4.73c-1.44-3.13-2.87-6.28-4.46-9.34s-3.24-6.11-4.88-9.15-3.46-6-5.33-8.92c-.91-1.48-1.83-2.95-2.81-4.38s-1.9-2.91-2.91-4.33c-2-2.81-4-5.68-6.18-8.42s-4.35-5.45-6.56-8.17c-1.11-1.35-2.31-2.63-3.46-4s-2.3-2.66-3.54-3.9c-2.42-2.55-4.83-5.13-7.39-7.57s-5.15-4.85-7.77-7.25-5.42-4.62-8.1-7c1.59.84,3.17,1.67,4.74,2.55s3.17,1.69,4.69,2.65c3.07,1.88,6.14,3.78,9.07,5.88,1.48,1,3,2,4.44,3.11l4.3,3.32c2.88,2.22,5.59,4.63,8.33,7s5.37,4.93,7.87,7.57,5,5.3,7.44,8c1.21,1.38,2.34,2.81,3.52,4.21s2.33,2.82,3.42,4.29c2.25,2.9,4.36,5.89,6.46,8.9s4.07,6.11,5.93,9.27,3.7,6.34,5.45,9.57l2.51,4.91,2.39,5c1.54,3.34,3,6.7,4.38,10.13s2.64,6.87,3.85,10.35,2.29,7,3.28,10.57,1.9,7.15,2.72,10.78c.4,1.81.78,3.64,1.11,5.5l.47,2.8c.15,1,.27,1.84.41,3l-15.73-1c.78-4,1.73-7.91,2.4-11.9s1.45-8,1.81-12l.71-6,.43-6c.4-4,.36-8.05.51-12.08,0-2-.06-4-.08-6.05s0-4-.19-6l-.35-6-.62-6-.32-3-.43-3c-.31-2-.52-4-.91-6l-1.12-6c-.39-2-.87-4-1.3-5.94s-1-3.95-1.47-5.91-1-3.94-1.65-5.88-1.14-3.91-1.79-5.84l-2-5.79-2.16-5.75c-.72-1.91-1.55-3.79-2.32-5.69-1.62-3.76-3.28-7.53-5.12-11.22s-3.71-7.37-5.73-11c-1-1.82-2.05-3.6-3.08-5.4l-3.26-5.32c-2.18-3.54-4.52-7-7-10.39S490.24,376.48,487.53,373.24Z"/></g></g></svg>